<?xml version="1.0" encoding="utf-8"?>
<!-- Generator: Adobe Illustrator 25.2.0, SVG Export Plug-In . SVG Version: 6.00 Build 0)  -->
<svg version="1.1" id="Layer_1" xmlns="http://www.w3.org/2000/svg" xmlns:xlink="http://www.w3.org/1999/xlink" x="0px" y="0px"
	 viewBox="0 0 512 512" style="enable-background:new 0 0 512 512;" xml:space="preserve">
<style type="text/css">
	.st0{fill:url(#SVGID_1_);stroke:#000000;stroke-width:7;stroke-miterlimit:10;}
	.st1{fill:url(#SVGID_2_);stroke:#000000;stroke-width:7;stroke-miterlimit:10;}
	.st2{fill:none;stroke:#FFFFFF;stroke-width:7;stroke-miterlimit:10;}
</style>
<g>
	<linearGradient id="SVGID_1_" gradientUnits="userSpaceOnUse" x1="398.8764" y1="398.2148" x2="99.5258" y2="104.2042">
		<stop  offset="0" style="stop-color:#00D901"/>
		<stop  offset="1" style="stop-color:#94FFAA"/>
	</linearGradient>
	<path class="st0" d="M301.6,12.8v200.5H498v86.4H301.6V502h-92.1V299.7H13v-86.4h196.4V12.8H301.6z"/>
</g>
<g>
	<linearGradient id="SVGID_2_" gradientUnits="userSpaceOnUse" x1="398.8764" y1="398.2148" x2="99.5258" y2="104.2042">
		<stop  offset="0" style="stop-color:#00D901"/>
		<stop  offset="1" style="stop-color:#94FFAA"/>
	</linearGradient>
	<path class="st1" d="M301.6,12.8v200.5H498v86.4H301.6V502h-92.1V299.7H13v-86.4h196.4V12.8H301.6z"/>
	<polygon class="st2" points="215.4,496 215.4,293.7 19,293.7 19,219.3 215.4,219.3 215.4,18.8 295.6,18.8 295.6,219.3 492,219.3 
		492,293.7 295.6,293.7 295.6,496 	"/>
</g>
</svg>
