<?xml version="1.0" encoding="utf-8"?>
<!-- Generator: Adobe Illustrator 25.2.0, SVG Export Plug-In . SVG Version: 6.00 Build 0)  -->
<svg version="1.1" id="Layer_1" xmlns="http://www.w3.org/2000/svg" xmlns:xlink="http://www.w3.org/1999/xlink" x="0px" y="0px"
	 viewBox="0 0 512 512" style="enable-background:new 0 0 512 512;" xml:space="preserve">
<style type="text/css">
	.st0{fill:none;stroke:#000000;stroke-width:3;}
	.st1{fill:#005F2B;}
	.st2{fill:#F7931E;stroke:#000000;stroke-width:5.0001;stroke-miterlimit:10.0001;}
	.st3{fill:url(#SVGID_1_);stroke:#000000;stroke-width:5;stroke-miterlimit:10;}
	.st4{fill:url(#SVGID_2_);stroke:#000000;stroke-width:5;stroke-miterlimit:10;}
	.st5{fill:#FCEE21;stroke:url(#SVGID_3_);stroke-width:2;stroke-miterlimit:10;}
</style>
<g>
	<path d="M202.3,256.1c-1.8-8.6-2.7-20.9-2.7-32.6c0-18.1,3.3-29.8,10.7-38c5.9-6.6,14.8-10.3,25-10.3c17.4,0,28.9,10.9,33.5,24.8
		h0.6c3.5-10.1,12.9-16.2,26.5-19.3c18.3-4.3,31-7.4,36.1-10.1V188c-3.7,2.1-15,5.1-31.4,8.8c-18.1,3.9-25,10.9-25.5,26.3v16h56.9
		v17H202.3z M262.1,239.1v-17.4c0-18.1-9.9-29.6-25-29.6c-17,0-24.4,12.3-24.6,30.2c0,8.2,0.8,14,1.6,16.8H262.1z"/>
	<path d="M200.5,134.2h131.4v17H200.5V134.2z"/>
	<path d="M200.5,104.6V33.8h14.2v53.8h43.7V37.9h14v49.7h59.5v17H200.5z"/>
</g>
<polygon class="st0" points="421,503 76,503 76.5,90 151,8 421,8 "/>
<g>
	<g>
		<path class="st1" d="M311.1,465.1c2.5-4-5.5-5.5-3.9-11c1.4-4.9,18.7-8.5,18.7-14c0-7.9-14.5-12.5-17.8-17.1
			c-4-5.5-7.4-5.1-14.6-5.1c-7.1,0-12.3-2.9-16.9,2.5c-3.3,3.9,3.7,13.1,0.8,20.6c-2.2,6.2-18.3,5.9-21.2,10.6
			c-3.5,5.7,1.5,20.7-3.3,23.8c-4.9,3.2-16.1,6.9-22.8,6.9c-7.3,0-16.2-9.3-21.7-13.2c-5.4-3.8,1.7-16.3-1.2-23.1
			c-2.4-5.8-8.4-8.9-8.4-16.5c0-5.6-13.2-12.5-12.4-16.9c1.2-6,12.4-7.6,14.4-11c7.3,0.6,12.4-6.5,18.2-2
			c-2.3,4.3-8.2,18.5-8.2,30.4c0,7.4-7.2,17.7-4.4,21.6c4,5.6,16.6-2.5,21.8-2.5c7.2,0,16.2,5.8,20.6-0.1c3.1-4.2,1.9-12.8,4.8-20.4
			c2.5-6.4-0.9-15.8,2.1-20.3c3.7-5.7,11.6-10,16.6-12.8c5-2.8,13-1.7,19.9-1.7c5.7,0,13.8-2.6,18.7-0.2c4.9,2.4,0.8,15.4,4.3,20.2
			c3,4.1,20.8,2.4,22.4,8.3c1.3,4.9-4.9,12.9-4.9,19.1c0,5.8,6.8,14.2,5.5,19.7c-1.5,6.6-12.9,5.4-15.5,9.3
			C315.6,468.6,317.2,469.4,311.1,465.1z"/>
	</g>
	<g>
		<path class="st1" d="M291.2,346.6c7.4,8,7.1,3.5,17.5,6.9S321,356,328,364.3c5.7,6.7,12.1,19.4,5,24.6c-7,5.1-12.3-12.7-20.5-15.5
			c-8.2-2.8-6.6-7.6-14.8-10.4c-8.2-2.8-13.2,12-21.5,9.2c-8.2-2.8-4.9-12.4-13.2-15.2c-8.2-2.8-10.6,4.2-18.8,1.4
			c-8.2-2.8-3.6-16.5-11.8-19.3c-8.2-2.8-12.6,10-20.8,7.2c-8.2-2.8-5.9-4.7-10.5-12.1c-5.5-8.7-14.3-11.4-8.8-20.1
			c4.6-7.3,11.9-1.4,20.1-4.2c8.2-2.8,6.3-8.4,14.5-11.2c8.2-2.8,9.4,0.8,17.6-2.1c8.2-2.8,6.2-8.8,14.4-11.6
			c8.2-2.8,11.9,7.9,20.1,5.1c8.2-2.8,7.6-4.7,15.8-7.5c8.2-2.8,11.5,6.8,19.7,4s7.9-22,14.8-16.8c7.2,5.5,8,16.2,2.2,23.2
			c-6.9,8.4-11.5,7.9-21.9,11.4s-14.1-6.9-21.5,1.2c-5.2,5.7,6.1,6.2,6.1,13.9c0,7.8-3.5,7.9-3.7,15.7
			C290.5,341.6,285.9,340.8,291.2,346.6z M269.8,312.7c-8.2-5.8-4.5,2.2-14,5.4s-10.8-0.7-20.3,2.5c-8.6,2.9-13.9,13-21.5,14.9
			c-0.2,0.1-3.6-4.9-3.4-4.8c7.8,2,14.1,8.9,22.1,11.4c9.5,3.2,14.5-11.6,24-8.4c9.5,3.2,10,21.5,18.2,15.7c8.1-5.7-7.7-13-6.2-22.7
			C270,318.6,277.8,318.4,269.8,312.7z"/>
	</g>
</g>
<g>
	
		<rect x="-8.3" y="270.2" transform="matrix(0.8728 -0.4881 0.4881 0.8728 -105.4895 154.3712)" class="st2" width="503.5" height="18.8"/>
	
		<linearGradient id="SVGID_1_" gradientUnits="userSpaceOnUse" x1="48.896" y1="234.7622" x2="553.199" y2="234.7622" gradientTransform="matrix(0.9263 4.120000e-02 -4.120000e-02 -0.977 -12.6481 521.0945)">
		<stop  offset="0" style="stop-color:#FFFFFF"/>
		<stop  offset="1" style="stop-color:#000000"/>
	</linearGradient>
	<polygon class="st3" points="485.2,197.2 45.7,442.9 27.9,411.1 467.4,165.3 	"/>
	
		<linearGradient id="SVGID_2_" gradientUnits="userSpaceOnUse" x1="303.2431" y1="101.2728" x2="412.6946" y2="162.4189" gradientTransform="matrix(0.9263 4.120000e-02 -4.120000e-02 -0.977 -12.6481 521.0945)">
		<stop  offset="0" style="stop-color:#FFFFFF"/>
		<stop  offset="1" style="stop-color:#000000"/>
	</linearGradient>
	<path class="st4" d="M366.5,490.2l-10.1,5.6c-4.4,2.5-10,0.9-12.5-3.5l-91.7-163.9l26.4-14.8l91.5,163.6
		C372.7,481.9,371.1,487.7,366.5,490.2z"/>
</g>
<linearGradient id="SVGID_3_" gradientUnits="userSpaceOnUse" x1="302.8873" y1="402.3174" x2="429.3666" y2="402.3174" gradientTransform="matrix(1 0 0 -1 0 514)">
	<stop  offset="0" style="stop-color:#FF7300"/>
	<stop  offset="0.1771" style="stop-color:#F97C01"/>
	<stop  offset="0.4705" style="stop-color:#EA9602"/>
	<stop  offset="0.5521" style="stop-color:#E59E03"/>
	<stop  offset="0.8652" style="stop-color:#E5C500"/>
	<stop  offset="0.9944" style="stop-color:#BF6F00"/>
</linearGradient>
<polygon class="st5" points="419.9,103.7 372.3,119.7 393.2,165.3 363.4,125 326.4,159 355.6,118.1 311.8,93.5 359.7,108.6 
	369.6,59.3 370,109.6 "/>
<polyline class="st0" points="76.5,90 151,90 151,8 "/>
</svg>
